<svg width="320" height="263" viewBox="0 0 320 263" fill="none" xmlns="http://www.w3.org/2000/svg">
<circle cx="110" cy="114" r="110" fill="#F5F4F3"/>
<path d="M31.4127 155.454C29.4568 158.327 30.1016 162.087 33.6489 166.59C37.1584 171.045 43.3341 175.993 51.7374 181.122C68.5316 191.372 94.0387 202.237 124.28 211.266C154.522 220.294 183.707 225.757 206.427 227.303C217.796 228.077 227.484 227.866 234.849 226.657C242.294 225.436 246.975 223.266 248.931 220.393C250.887 217.521 250.242 213.761 246.695 209.258C243.186 204.803 237.01 199.855 228.607 194.726C211.812 184.476 186.305 173.611 156.064 164.582C125.822 155.554 96.6371 150.091 73.9168 148.544C62.5483 147.771 52.8603 147.982 45.4949 149.191C38.0502 150.412 33.3686 152.582 31.4127 155.454Z" stroke="#747474" stroke-width="2"/>
<path d="M63.0376 97.8613C63.6525 97.7987 64.2039 97.4553 64.5314 96.931L83.8099 66.0624C84.8661 64.3712 87.4757 65.0978 87.506 67.0915L88.0652 103.946C88.0742 104.537 88.3441 105.094 88.8025 105.467L110.135 122.83C111.551 123.983 110.808 126.275 108.985 126.378L82.2776 127.883C81.6383 127.919 81.0549 128.259 80.7083 128.798L59.5494 161.675C58.4506 163.383 55.801 162.555 55.8687 160.526L57.1574 121.889C57.1796 121.223 56.8691 120.59 56.3293 120.201L34.3036 104.299C32.8126 103.222 33.4423 100.874 35.2718 100.687L63.0376 97.8613Z" fill="#FF9864"/>
<path fill-rule="evenodd" clip-rule="evenodd" d="M185.505 48.9257C187.07 48.84 188.547 49.1235 189.773 49.7451C190.999 50.3667 191.927 51.3023 192.454 52.4492L238.483 152.204C239.012 153.349 239.121 154.662 238.797 155.997C238.474 157.332 237.731 158.639 236.65 159.774C235.569 160.909 234.192 161.827 232.67 162.429C231.148 163.031 229.539 163.293 228.021 163.187L173.002 159.308L144.557 97.6601L177.309 53.2821C178.212 52.0569 179.454 51.0021 180.9 50.2336C182.346 49.4651 183.939 49.0126 185.505 48.9257ZM239.764 91.116C244.022 100.343 241.23 111.409 233.535 120.193L213.599 76.9866C225.276 76.8317 235.504 81.8825 239.764 91.116ZM131.075 111.019L82.4844 133.44C80.3366 134.431 78.5798 136.039 77.6005 137.909C76.6213 139.779 76.4998 141.758 77.2628 143.412L94.5237 180.82C95.2867 182.473 96.8716 183.665 98.9299 184.134C100.988 184.602 103.351 184.309 105.499 183.317L154.09 160.897L131.075 111.019ZM156.967 167.131L116.474 185.815L125.105 204.519C125.868 206.173 127.453 207.365 129.511 207.833C131.569 208.302 133.932 208.008 136.08 207.017L160.375 195.807C162.523 194.816 164.28 193.208 165.259 191.338C166.239 189.468 166.36 187.489 165.597 185.835L156.967 167.131Z" fill="#747474"/>
<path d="M227.627 45.2007C278.32 50.7017 290.935 94.4177 275.308 134.806" stroke="#8F8F8F" stroke-width="10" stroke-linecap="round"/>
<path d="M214.871 12.4092C285.62 14.0008 337.346 85.8227 295.074 160.696" stroke="#8F8F8F" stroke-width="10" stroke-linecap="round"/>
<path fill-rule="evenodd" clip-rule="evenodd" d="M209.913 229.072C209.98 232.25 208.393 234.018 205.075 234.129C201.779 234.239 196.926 232.701 190.838 229.636C178.673 223.511 161.744 211.373 142.945 194.653C124.146 177.934 107.091 159.849 94.7214 144.154C88.5317 136.301 83.558 129.099 80.1303 123.009C76.6788 116.877 74.9537 112.164 74.8861 108.986C74.8184 105.808 76.4055 104.04 79.724 103.929C83.0198 103.819 87.8729 105.357 93.9606 108.422C99.2704 111.096 105.487 114.914 112.371 119.76L113.237 119.378C89.9385 102.802 73.9107 97.6079 74.1388 108.321C74.4519 123.025 105.267 162.125 142.966 195.653C180.666 229.181 210.973 244.441 210.66 229.737C210.364 215.832 182.792 180.112 147.916 147.918L148.622 149.551C164.727 164.482 179.211 180.115 190.077 193.904C196.267 201.758 201.241 208.959 204.669 215.049C208.12 221.181 209.845 225.894 209.913 229.072Z" fill="black"/>
<path d="M254.18 173.784C254.478 173.865 254.796 173.803 255.042 173.618L265.886 165.452C266.686 164.85 267.776 165.667 267.423 166.604L262.567 179.477C262.463 179.753 262.486 180.061 262.631 180.318L267.591 189.175C268.035 189.967 267.278 190.893 266.414 190.616L257.044 187.617C256.739 187.52 256.406 187.574 256.148 187.763L244.379 196.381C243.556 196.983 242.465 196.113 242.87 195.177L248.596 181.95C248.728 181.644 248.7 181.293 248.521 181.013L243.14 172.602C242.647 171.832 243.361 170.859 244.243 171.097L254.18 173.784Z" fill="#262626"/>
<circle cx="87" cy="169" r="15" fill="#FF9864"/>
</svg>
