<svg width="56" height="56" viewBox="0 0 56 56" fill="none" xmlns="http://www.w3.org/2000/svg">
<rect width="56" height="56" fill="white"/>
<path d="M8 43.508C8 43.508 13.6886 36.2448 27.7251 36.2448C41.7615 36.2448 47.4527 43.508 47.4527 43.508M27.7251 27.3125C29.7556 27.3125 31.703 26.5059 33.1388 25.07C34.5747 23.6342 35.3813 21.6868 35.3813 19.6563C35.3813 17.6257 34.5747 15.6783 33.1388 14.2425C31.703 12.8066 29.7556 12 27.7251 12C25.6945 12 23.7471 12.8066 22.3113 14.2425C20.8754 15.6783 20.0688 17.6257 20.0688 19.6563C20.0688 21.6868 20.8754 23.6342 22.3113 25.07C23.7471 26.5059 25.6945 27.3125 27.7251 27.3125Z" stroke="#FF9864" stroke-width="1.5" stroke-linecap="round" stroke-linejoin="round"/>
</svg>
