<svg width="306" height="239" viewBox="0 0 306 239" fill="none" xmlns="http://www.w3.org/2000/svg">
<ellipse cx="228.769" cy="161.492" rx="76.7686" ry="77.4919" fill="#DDDCDB" fill-opacity="0.8"/>
<ellipse cx="108.755" cy="109.78" rx="108.755" ry="109.78" fill="#F5F4F3" fill-opacity="0.6"/>
<path d="M77.4634 128.216C77.7414 128.086 77.9444 127.836 78.0141 127.537L87.0927 88.63C87.3231 87.6428 88.7067 87.5846 89.0182 88.549L101.415 126.934C101.505 127.213 101.714 127.439 101.985 127.551L128.872 138.626C129.697 138.966 129.696 140.136 128.87 140.475L102.661 151.254C102.366 151.375 102.147 151.63 102.07 151.939L91.7928 193.553C91.5456 194.554 90.1286 194.572 89.8573 193.577L78.6779 152.593C78.5908 152.274 78.3511 152.018 78.0379 151.911L50.8074 142.575C49.9566 142.284 49.894 141.105 50.709 140.724L77.4634 128.216Z" fill="#FF9864"/>
<path d="M268.787 36.0455C269.073 35.9251 269.287 35.6786 269.366 35.3783L273.761 18.7091C274.011 17.759 275.338 17.7012 275.669 18.6259L281.561 35.0786C281.661 35.3578 281.88 35.5781 282.159 35.6801L294.746 40.2903C295.619 40.61 295.621 41.844 294.749 42.167L282.498 46.7054C282.197 46.8168 281.968 47.0659 281.882 47.3749L276.905 65.2245C276.636 66.189 275.273 66.2042 274.984 65.2458L269.695 47.7298C269.599 47.4101 269.349 47.1598 269.029 47.0626L256.338 43.201C255.443 42.9286 255.38 41.6855 256.243 41.3226L268.787 36.0455Z" fill="#FFBC9A"/>
<path fill-rule="evenodd" clip-rule="evenodd" d="M265.407 81.9312C265.407 107.89 243.229 128.934 215.879 128.934C210.895 128.934 199.532 127.844 194.007 123.468L187.095 130.024C183.028 133.885 184.125 135.02 185.935 136.887C186.687 137.671 187.565 138.575 188.247 139.867C188.247 139.867 194.007 147.514 188.247 155.169C184.791 159.537 175.113 165.654 164.063 155.169L161.759 157.349C161.759 157.349 168.663 165.004 162.911 172.658C159.455 177.027 150.239 181.396 142.175 173.749L134.119 181.396C128.586 186.646 121.831 183.584 119.151 181.396L112.231 174.839C105.782 168.715 109.543 162.084 112.231 159.53L172.119 102.699C172.119 102.699 166.359 93.9619 166.359 81.9386C166.359 55.9803 188.537 34.9358 215.887 34.9358C243.237 34.9358 265.407 55.9803 265.407 81.9312ZM215.887 98.3306C220.458 98.3386 224.845 96.6163 228.084 93.5424C231.323 90.4685 233.148 86.2947 233.159 81.9386C233.155 79.7811 232.705 77.6455 231.835 75.6537C230.964 73.6619 229.691 71.8529 228.087 70.3301C226.483 68.8073 224.58 67.6004 222.487 66.7783C220.394 65.9563 218.151 65.5352 215.887 65.5392C213.623 65.5352 211.38 65.9563 209.287 66.7783C207.193 67.6004 205.291 68.8073 203.687 70.3301C202.083 71.8529 200.809 73.6619 199.939 75.6537C199.069 77.6455 198.619 79.7811 198.615 81.9386C198.625 86.2947 200.451 90.4685 203.689 93.5424C206.928 96.6163 211.316 98.3386 215.887 98.3306Z" fill="#747474"/>
<path fill-rule="evenodd" clip-rule="evenodd" d="M161.701 68.9542C144.05 63.4158 129.242 65.5603 118.349 71.5691C111.673 75.2521 106.91 82.1132 105.395 89.141C103.884 96.1497 105.62 103.166 111.703 107.429C118.286 112.041 127.818 114.583 139.018 116.052C144.438 116.763 150.213 117.219 156.186 117.545L154.237 119.437C148.875 119.117 143.674 118.68 138.758 118.035C127.479 116.556 117.547 113.966 110.556 109.067C103.648 104.226 101.807 96.2966 103.44 88.7196C105.069 81.1616 110.17 73.7972 117.383 69.8179C128.799 63.52 144.18 61.3604 162.3 67.0459C162.827 67.2113 163.12 67.7725 162.955 68.2994C162.789 68.8264 162.228 69.1195 161.701 68.9542ZM231.501 126.663C235.171 127.93 238.475 129.467 241.328 131.34C250.294 137.225 253.485 143.556 252.028 149.216C250.538 155.002 244.077 160.72 232.174 165.014C208.474 173.563 164.377 176.005 101.202 163.02C94.2172 161.585 88.8717 159.311 85.8463 156.798C84.3352 155.543 83.4859 154.299 83.2122 153.15C82.9502 152.05 83.1816 150.901 84.1354 149.694C85.1144 148.456 86.8514 147.171 89.5499 145.949C92.2374 144.732 95.8149 143.606 100.399 142.647C108.322 140.99 119.179 139.847 133.494 139.567L135.59 137.532C120.141 137.737 108.466 138.916 99.9894 140.69C95.3131 141.668 91.5857 142.832 88.7249 144.127C85.8751 145.418 83.8206 146.867 82.5665 148.454C81.2872 150.072 80.8436 151.838 81.2667 153.613C81.6779 155.339 82.8735 156.929 84.5686 158.337C87.9557 161.15 93.6683 163.514 100.799 164.98C164.124 177.995 208.648 175.626 232.853 166.895C244.903 162.549 252.215 156.51 253.965 149.715C255.747 142.794 251.643 135.719 242.426 129.668C239.97 128.056 237.217 126.69 234.22 125.529C233.376 126.042 232.459 126.425 231.501 126.663Z" fill="#262626"/>
<path d="M155.771 57.0903C156.076 57.0634 156.352 56.8982 156.52 56.6418L164.455 44.5293C165.012 43.6794 166.334 44.1043 166.291 45.1192L165.664 59.7597C165.652 60.0528 165.769 60.3365 165.984 60.5358L173.72 67.6961C174.373 68.3007 173.969 69.3932 173.08 69.429L162.888 69.8392C162.57 69.8521 162.276 70.0158 162.098 70.2801L153.411 83.1787C152.833 84.0359 151.494 83.5618 151.585 82.5325L152.945 67.2125C152.974 66.8829 152.838 66.5603 152.582 66.3508L144.574 59.7961C143.881 59.2283 144.228 58.1049 145.121 58.0264L155.771 57.0903Z" fill="#262626"/>
<ellipse cx="236.5" cy="164" rx="11.5" ry="12" fill="#FF9864"/>
</svg>
