<svg width="10" height="18" viewBox="0 0 10 18" fill="none" xmlns="http://www.w3.org/2000/svg">
<path d="M9.26446 16.6035L2.34796 9.57604C2.19626 9.42271 2.11118 9.21573 2.11118 9.00004C2.11118 8.78435 2.19626 8.57737 2.34796 8.42404L9.26296 1.39654C9.41457 1.24226 9.49952 1.0346 9.49952 0.818291C9.49952 0.601981 9.41457 0.394324 9.26296 0.240041C9.18889 0.164068 9.10037 0.10369 9.0026 0.0624644C8.90484 0.0212388 8.79981 0 8.6937 0C8.5876 0 8.48258 0.0212388 8.38481 0.0624644C8.28705 0.10369 8.19852 0.164068 8.12446 0.240041L1.20946 7.26604C0.755067 7.72882 0.500488 8.35148 0.500488 9.00004C0.500488 9.64861 0.755067 10.2713 1.20946 10.734L8.12446 17.76C8.19854 17.8362 8.28716 17.8968 8.38506 17.9382C8.48297 17.9795 8.58817 18.0009 8.69446 18.0009C8.80074 18.0009 8.90594 17.9795 9.00385 17.9382C9.10175 17.8968 9.19037 17.8362 9.26446 17.76C9.41607 17.6058 9.50102 17.3981 9.50102 17.1818C9.50102 16.9655 9.41607 16.7578 9.26446 16.6035Z" fill="#282828"/>
</svg>
