<svg width="293" height="248" viewBox="0 0 293 248" fill="none" xmlns="http://www.w3.org/2000/svg">
<ellipse cx="76.7686" cy="147.235" rx="76.7686" ry="77.4919" fill="#DDDCDB" fill-opacity="0.8"/>
<ellipse cx="184.245" cy="109.78" rx="108.755" ry="109.78" fill="#F5F4F3" fill-opacity="0.6"/>
<g clip-path="url(#clip0_652_2880)">
<rect x="58.8555" y="80.075" width="188.083" height="135.611" rx="11" fill="white"/>
<rect x="58.8555" y="80.075" width="188.083" height="135.611" rx="11" fill="white"/>
<path d="M141.142 175.78C141.142 179.017 140.177 181.768 138.249 184.034C136.32 186.301 134.009 187.434 131.315 187.434H92.1924C89.4985 187.434 87.1873 186.301 85.2587 184.034C83.3301 181.768 82.3658 179.017 82.3658 175.78C82.3658 172.601 82.5954 169.643 83.0546 166.907C83.5138 164.17 84.2638 161.521 85.3046 158.961C86.3455 156.4 87.9067 154.384 89.9883 152.913C92.07 151.441 94.5496 150.706 97.4272 150.706C101.346 154.473 106.121 156.356 111.754 156.356C117.386 156.356 122.162 154.473 126.08 150.706C128.958 150.706 131.438 151.441 133.519 152.913C135.601 154.384 137.162 156.4 138.203 158.961C139.244 161.521 139.994 164.17 140.453 166.907C140.912 169.643 141.142 172.601 141.142 175.78ZM129.387 136.579C129.387 141.288 127.672 145.291 124.244 148.587C120.815 151.883 116.652 153.531 111.754 153.531C106.856 153.531 102.693 151.883 99.2639 148.587C95.8353 145.291 94.121 141.288 94.121 136.579C94.121 131.871 95.8353 127.868 99.2639 124.572C102.693 121.276 106.856 119.628 111.754 119.628C116.652 119.628 120.815 121.276 124.244 124.572C127.672 127.868 129.387 131.871 129.387 136.579ZM223.428 173.307V178.958C223.428 179.782 223.153 180.459 222.602 180.989C222.051 181.518 221.346 181.783 220.489 181.783H155.836C154.979 181.783 154.275 181.518 153.723 180.989C153.172 180.459 152.897 179.782 152.897 178.958V173.307C152.897 172.483 153.172 171.807 153.723 171.277C154.275 170.747 154.979 170.482 155.836 170.482H220.489C221.346 170.482 222.051 170.747 222.602 171.277C223.153 171.807 223.428 172.483 223.428 173.307ZM188.163 150.706V156.356C188.163 157.18 187.887 157.857 187.336 158.387C186.785 158.916 186.081 159.181 185.224 159.181H155.836C154.979 159.181 154.275 158.916 153.723 158.387C153.172 157.857 152.897 157.18 152.897 156.356V150.706C152.897 149.882 153.172 149.205 153.723 148.675C154.275 148.145 154.979 147.88 155.836 147.88H185.224C186.081 147.88 186.785 148.145 187.336 148.675C187.887 149.205 188.163 149.882 188.163 150.706ZM223.428 150.706V156.356C223.428 157.18 223.153 157.857 222.602 158.387C222.051 158.916 221.346 159.181 220.489 159.181H202.856C201.999 159.181 201.295 158.916 200.744 158.387C200.193 157.857 199.918 157.18 199.918 156.356V150.706C199.918 149.882 200.193 149.205 200.744 148.675C201.295 148.145 201.999 147.88 202.856 147.88H220.489C221.346 147.88 222.051 148.145 222.602 148.675C223.153 149.205 223.428 149.882 223.428 150.706ZM223.428 128.104V133.754C223.428 134.578 223.153 135.255 222.602 135.785C222.051 136.315 221.346 136.579 220.489 136.579H155.836C154.979 136.579 154.275 136.315 153.723 135.785C153.172 135.255 152.897 134.578 152.897 133.754V128.104C152.897 127.28 153.172 126.603 153.723 126.073C154.275 125.543 154.979 125.279 155.836 125.279H220.489C221.346 125.279 222.051 125.543 222.602 126.073C223.153 126.603 223.428 127.28 223.428 128.104ZM235.183 201.56V102.677H70.6107V201.56C70.6107 202.325 70.9015 202.987 71.4831 203.546C72.0647 204.105 72.7535 204.385 73.5495 204.385H232.244C233.04 204.385 233.729 204.105 234.311 203.546C234.892 202.987 235.183 202.325 235.183 201.56ZM246.938 94.2011V201.56C246.938 205.444 245.5 208.77 242.622 211.536C239.745 214.303 236.285 215.686 232.244 215.686H73.5495C69.5086 215.686 66.0494 214.303 63.1718 211.536C60.2943 208.77 58.8555 205.444 58.8555 201.56V94.2011C58.8555 90.3164 60.2943 86.9909 63.1718 84.2245C66.0494 81.4581 69.5086 80.075 73.5495 80.075H232.244C236.285 80.075 239.745 81.4581 242.622 84.2245C245.5 86.9909 246.938 90.3164 246.938 94.2011Z" fill="#747474"/>
</g>
<path d="M40.4673 192.193C41.0184 191.913 41.4093 191.394 41.5263 190.787L46.5971 164.471C46.9747 162.511 49.6728 162.248 50.4163 164.098L60.5406 189.291C60.7609 189.839 61.2123 190.261 61.7739 190.444L80.9483 196.697C82.6827 197.262 82.8123 199.667 81.149 200.42L63.3181 208.502C62.7346 208.766 62.3126 209.294 62.1829 209.921L56.3498 238.131C55.9383 240.121 53.167 240.305 52.502 238.386L43.1909 211.522C42.9729 210.893 42.4562 210.415 41.8126 210.245L22.6136 205.195C20.8372 204.728 20.5816 202.312 22.2203 201.478L40.4673 192.193Z" fill="#FF9864"/>
<ellipse cx="76.7684" cy="235.059" rx="12.7948" ry="12.9153" fill="#FF9864"/>
<path d="M252.291 129.477C252.572 129.35 252.778 129.1 252.85 128.801L255.882 116.21C256.117 115.233 257.486 115.174 257.803 116.129L261.933 128.583C262.025 128.863 262.237 129.087 262.51 129.196L271.431 132.762C272.269 133.097 272.269 134.284 271.431 134.619L262.795 138.077C262.498 138.195 262.276 138.449 262.197 138.758L258.761 152.244C258.508 153.236 257.105 153.253 256.829 152.267L253.123 139.028C253.033 138.708 252.791 138.454 252.476 138.349L243.521 135.371C242.658 135.085 242.595 133.889 243.423 133.512L252.291 129.477Z" fill="#262626"/>
<path fill-rule="evenodd" clip-rule="evenodd" d="M115.028 41.8122C115.027 41.8132 115.013 41.8228 114.991 41.8556C114.968 41.8923 114.931 41.9637 114.904 42.0853C114.848 42.3397 114.847 42.744 114.993 43.3366C115.287 44.5289 116.093 46.1746 117.48 48.2699C120.241 52.4386 125.052 58.016 131.59 64.6339C136.462 69.5649 142.262 75.0421 148.828 80.9021H145.896C122.366 59.7717 108.991 43.7473 113.443 40.5928C120.035 35.9217 163.219 61.24 209.898 97.1429C256.577 133.046 289.073 165.937 282.481 170.609C278.988 173.084 265.214 167.135 246.089 155.651V153.494C247.657 154.445 249.191 155.36 250.688 156.237C259.376 161.332 266.728 165.109 272.257 167.316C275.036 168.425 277.23 169.087 278.831 169.353C279.628 169.485 280.175 169.501 280.521 169.47C280.687 169.455 280.785 169.431 280.836 169.415C280.881 169.4 280.895 169.39 280.896 169.389C280.898 169.388 280.912 169.379 280.933 169.346C280.957 169.309 280.993 169.238 281.02 169.116C281.077 168.862 281.078 168.457 280.932 167.865C280.638 166.672 279.832 165.027 278.444 162.931C275.683 158.763 270.873 153.185 264.334 146.567C251.277 133.352 231.557 116.213 208.266 98.2992C184.976 80.3853 162.588 65.1364 145.237 54.9639C136.548 49.8698 129.197 46.0928 123.668 43.8854C120.889 42.7759 118.695 42.1139 117.093 41.8485C116.297 41.7165 115.75 41.7003 115.403 41.7317C115.237 41.7467 115.139 41.7706 115.089 41.7867C115.043 41.8011 115.03 41.8111 115.028 41.8121L115.028 41.8121C115.028 41.8122 115.028 41.8122 115.028 41.8122Z" fill="#262626"/>
<defs>
<clipPath id="clip0_652_2880">
<rect x="58.8555" y="80.075" width="188.083" height="135.611" rx="11" fill="white"/>
</clipPath>
</defs>
</svg>
