<svg width="393" height="852" viewBox="0 0 393 852" fill="none" xmlns="http://www.w3.org/2000/svg">
<g clip-path="url(#clip0_652_2820)">
<rect width="393" height="852" fill="white"/>
<circle cx="322" cy="530" r="200" fill="#F5F4F3"/>
<circle cx="282" cy="730" r="85" fill="#FF9864"/>
<circle cx="68" cy="240" r="90" fill="#FF9864" fill-opacity="0.3"/>
<circle cx="348" cy="61" r="50" fill="#DDDCDB"/>
<path d="M103.212 387.599C103.832 387.544 104.391 387.203 104.724 386.677L111.062 376.676C112.103 375.035 114.636 375.691 114.748 377.631L115.448 389.713C115.482 390.306 115.778 390.853 116.256 391.206L123.455 396.523C124.969 397.642 124.24 400.043 122.359 400.13L113.769 400.528C113.127 400.557 112.539 400.893 112.188 401.43L105.191 412.122C104.106 413.78 101.529 413.02 101.518 411.038L101.447 398.509C101.444 397.84 101.106 397.217 100.547 396.849L93.2726 392.062C91.6898 391.02 92.3079 388.567 94.1952 388.399L103.212 387.599Z" fill="#262626"/>
<path d="M317.669 558.177C318.206 557.865 318.568 557.321 318.648 556.704L323.759 517.26C324.011 515.32 326.611 514.858 327.516 516.592L346.173 552.342C346.448 552.868 346.942 553.245 347.522 553.371L378.096 560.008C379.922 560.404 380.255 562.866 378.6 563.733L351.56 577.908C350.991 578.206 350.6 578.758 350.509 579.394L344.408 621.706C344.123 623.68 341.441 624.067 340.61 622.254L323.015 583.864C322.737 583.257 322.173 582.828 321.513 582.723L290.885 577.822C289.028 577.525 288.571 575.061 290.198 574.117L317.669 558.177Z" fill="#FF9864"/>
<circle cx="47" cy="330" r="35" fill="#747474" fill-opacity="0.8"/>
<path d="M-40 722.5C362.8 744.9 380.167 650.833 338.5 601C229.5 485.5 -48.9308 470.853 50.5 312.5C131.5 183.5 400 78.1667 468 61.5" stroke="black" stroke-width="2" stroke-linecap="round"/>
</g>
<defs>
<clipPath id="clip0_652_2820">
<rect width="393" height="852" fill="white"/>
</clipPath>
</defs>
</svg>
